<svg width="123" height="24" viewBox="0 0 123 24" fill="none" xmlns="http://www.w3.org/2000/svg">
<path d="M32.9067 8.02487H33.7144V5.04163H36.6065V4.32513H33.7144V2.07142H36.9061V1.35492H32.9067V8.02487Z" fill="#222222"/>
<path d="M38.3686 8.02487H39.1372V3.02241H38.3686V8.02487ZM38.7595 2.18866C39.0591 2.18866 39.3066 1.95417 39.3066 1.66757C39.3066 1.38097 39.0591 1.14648 38.7595 1.14648C38.4598 1.14648 38.2123 1.38097 38.2123 1.66757C38.2123 1.95417 38.4598 2.18866 38.7595 2.18866Z" fill="#222222"/>
<path d="M44.9102 9.90079V3.02241H44.1676V3.81707H44.0764C43.9071 3.55652 43.6074 2.95727 42.6304 2.95727C41.3668 2.95727 40.4939 3.96037 40.4939 5.53666C40.4939 7.12599 41.3668 8.12908 42.6174 8.12908C43.5814 8.12908 43.9071 7.52983 44.0764 7.25626H44.1416V9.90079H44.9102ZM44.1546 5.52364C44.1546 6.65701 43.6465 7.43864 42.7216 7.43864C41.7576 7.43864 41.2625 6.59187 41.2625 5.52364C41.2625 4.46843 41.7445 3.64771 42.7216 3.64771C43.6596 3.64771 44.1546 4.40329 44.1546 5.52364Z" fill="#222222"/>
<path d="M49.6531 5.97959C49.6531 6.91755 48.9366 7.34745 48.3634 7.34745C47.7251 7.34745 47.2691 6.87847 47.2691 6.14894V3.02241H46.5005V6.20105C46.5005 7.47772 47.178 8.09 48.1159 8.09C48.8715 8.09 49.3665 7.68616 49.601 7.1781H49.6531V8.02487H50.4217V3.02241H49.6531V5.97959Z" fill="#222222"/>
<path d="M54.1103 8.12908C55.1264 8.12908 55.869 7.62102 56.1035 6.86544L55.3609 6.65701C55.1655 7.1781 54.7128 7.43864 54.1103 7.43864C53.2082 7.43864 52.5861 6.85567 52.5503 5.78418H56.1816V5.4585C56.1816 3.59561 55.0743 2.95727 54.0321 2.95727C52.6773 2.95727 51.7784 4.0255 51.7784 5.56272C51.7784 7.09993 52.6643 8.12908 54.1103 8.12908ZM52.5503 5.11979C52.6024 4.34141 53.1528 3.64771 54.0321 3.64771C54.8659 3.64771 55.4 4.27302 55.4 5.11979H52.5503Z" fill="#222222"/>
<path d="M62.3945 8.12908C63.4106 8.12908 64.1531 7.62102 64.3876 6.86544L63.6451 6.65701C63.4497 7.1781 62.997 7.43864 62.3945 7.43864C61.4923 7.43864 60.8703 6.85567 60.8344 5.78418H64.4658V5.4585C64.4658 3.59561 63.3585 2.95727 62.3163 2.95727C60.9615 2.95727 60.0626 4.0255 60.0626 5.56272C60.0626 7.09993 60.9484 8.12908 62.3945 8.12908ZM60.8344 5.11979C60.8865 4.34141 61.4369 3.64771 62.3163 3.64771C63.15 3.64771 63.6841 4.27302 63.6841 5.11979H60.8344Z" fill="#222222"/>
<path d="M65.8184 8.02487H66.587V4.89833C66.587 4.16555 67.1211 3.64771 67.7204 3.64771C68.3033 3.64771 68.7105 4.02876 68.7105 4.5987V8.02487H69.4921V4.76806C69.4921 4.12321 69.8959 3.64771 70.5994 3.64771C71.1465 3.64771 71.6155 3.93757 71.6155 4.67687V8.02487H72.3841V4.67687C72.3841 3.50116 71.7523 2.95727 70.8599 2.95727C70.1434 2.95727 69.6191 3.28621 69.3618 3.80404H69.3097C69.0622 3.26992 68.6258 2.95727 67.9679 2.95727C67.3165 2.95727 66.8345 3.26992 66.6261 3.80404H66.561V3.02241H65.8184V8.02487Z" fill="#222222"/>
<path d="M78.7679 8.12908C79.8753 8.12908 80.6048 7.45167 80.735 6.56582H79.9664C79.8231 7.11296 79.3672 7.43864 78.7679 7.43864C77.856 7.43864 77.2698 6.68306 77.2698 5.52364C77.2698 4.39027 77.8691 3.64771 78.7679 3.64771C79.4454 3.64771 79.8492 4.06459 79.9664 4.52054H80.735C80.6048 3.58258 79.8101 2.95727 78.7549 2.95727C77.4001 2.95727 76.5012 4.0255 76.5012 5.54969C76.5012 7.04782 77.361 8.12908 78.7679 8.12908Z" fill="#222222"/>
<path d="M83.5142 8.14211C84.387 8.14211 84.8429 7.67313 84.9993 7.34745H85.0383V8.02487H85.8069V4.72898C85.8069 3.13965 84.5954 2.95727 83.9571 2.95727C83.2015 2.95727 82.3417 3.21782 81.9509 4.12972L82.6804 4.39027C82.8498 4.0255 83.2504 3.63469 83.9831 3.63469C84.6899 3.63469 85.0383 4.00922 85.0383 4.65081V4.67687C85.0383 5.04814 84.6605 5.01557 83.7486 5.13282C82.8204 5.25332 81.8076 5.4585 81.8076 6.6049C81.8076 7.58194 82.5632 8.14211 83.5142 8.14211ZM83.6314 7.45167C83.0191 7.45167 82.5762 7.1781 82.5762 6.64398C82.5762 6.05775 83.1103 5.87537 83.7096 5.79721C84.0352 5.75813 84.9081 5.66694 85.0383 5.51061V6.21408C85.0383 6.83939 84.5433 7.45167 83.6314 7.45167Z" fill="#222222"/>
<path d="M90.9366 4.14275C90.6956 3.43276 90.155 2.95727 89.1649 2.95727C88.1097 2.95727 87.3281 3.55652 87.3281 4.40329C87.3281 5.09374 87.7385 5.55621 88.6569 5.77115L89.4906 5.96656C89.9954 6.08381 90.2332 6.32481 90.2332 6.67003C90.2332 7.09993 89.7772 7.45167 89.0607 7.45167C88.4322 7.45167 88.0381 7.18135 87.9013 6.64398L87.1718 6.82636C87.3509 7.67639 88.0511 8.12908 89.0738 8.12908C90.2364 8.12908 91.0278 7.49401 91.0278 6.63095C91.0278 5.934 90.5914 5.49433 89.6991 5.27612L88.9565 5.09374C88.3638 4.94718 88.0967 4.74852 88.0967 4.36421C88.0967 3.93431 88.5527 3.62166 89.1649 3.62166C89.8358 3.62166 90.1127 3.99294 90.2462 4.33816L90.9366 4.14275Z" fill="#222222"/>
<path d="M93.8403 8.14211C94.7131 8.14211 95.1691 7.67313 95.3254 7.34745H95.3645V8.02487H96.1331V4.72898C96.1331 3.13965 94.9216 2.95727 94.2833 2.95727C93.5277 2.95727 92.6679 3.21782 92.2771 4.12972L93.0066 4.39027C93.1759 4.0255 93.5765 3.63469 94.3093 3.63469C95.016 3.63469 95.3645 4.00922 95.3645 4.65081V4.67687C95.3645 5.04814 94.9867 5.01557 94.0748 5.13282C93.1466 5.25332 92.1338 5.4585 92.1338 6.6049C92.1338 7.58194 92.8893 8.14211 93.8403 8.14211ZM93.9576 7.45167C93.3453 7.45167 92.9024 7.1781 92.9024 6.64398C92.9024 6.05775 93.4365 5.87537 94.0357 5.79721C94.3614 5.75813 95.2342 5.66694 95.3645 5.51061V6.21408C95.3645 6.83939 94.8695 7.45167 93.9576 7.45167Z" fill="#222222"/>
<path d="M32.9686 21.2083H35.0839V17.0754H39.378V21.2083H41.4884V11.2034H39.378V15.3314H35.0839V11.2034H32.9686V21.2083Z" fill="#222222"/>
<path d="M46.5837 21.3549C48.8602 21.3549 50.2769 19.7965 50.2769 17.4858C50.2769 15.1604 48.8602 13.6069 46.5837 13.6069C44.3072 13.6069 42.8905 15.1604 42.8905 17.4858C42.8905 19.7965 44.3072 21.3549 46.5837 21.3549ZM46.5935 19.7428C45.5432 19.7428 45.0058 18.7804 45.0058 17.4711C45.0058 16.1619 45.5432 15.1946 46.5935 15.1946C47.6243 15.1946 48.1616 16.1619 48.1616 17.4711C48.1616 18.7804 47.6243 19.7428 46.5935 19.7428Z" fill="#222222"/>
<path d="M51.6301 13.7046V21.521C51.6301 22.0877 51.3908 22.371 50.7215 22.371C50.6336 22.371 50.5554 22.371 50.4479 22.3612V23.988C50.6091 23.9978 50.7215 23.9978 50.8339 23.9978C52.6365 24.0466 53.7112 23.2943 53.7112 21.5552V13.7046H51.6301ZM52.6658 12.7374C53.2862 12.7374 53.7943 12.2635 53.7943 11.6822C53.7943 11.1057 53.2862 10.6318 52.6658 10.6318C52.0503 10.6318 51.5422 11.1057 51.5422 11.6822C51.5422 12.2635 52.0503 12.7374 52.6658 12.7374Z" fill="#222222"/>
<path d="M58.798 21.3549C60.6544 21.3549 61.905 20.4511 62.1981 19.0588L60.2733 18.9318C60.0632 19.5034 59.5259 19.8014 58.8322 19.8014C57.7916 19.8014 57.1321 19.1126 57.1321 17.9939V17.989H62.2421V17.4174C62.2421 14.8673 60.6983 13.6069 58.7149 13.6069C56.5068 13.6069 55.0754 15.1751 55.0754 17.4907C55.0754 19.8698 56.4873 21.3549 58.798 21.3549ZM57.1321 16.6993C57.1761 15.8444 57.8258 15.1604 58.7491 15.1604C59.6529 15.1604 60.2782 15.8053 60.2831 16.6993H57.1321Z" fill="#222222"/>
<path d="M70.7753 13.7046H69.3635V11.9069H67.2824V13.7046H66.2565V15.2679H67.2824V19.1761C67.2726 20.6465 68.2741 21.3744 69.7836 21.3109C70.321 21.2914 70.702 21.1839 70.9121 21.1155L70.5848 19.5669C70.4822 19.5864 70.2624 19.6353 70.0669 19.6353C69.6517 19.6353 69.3635 19.479 69.3635 18.9025V15.2679H70.7753V13.7046Z" fill="#222222"/>
<path d="M75.47 21.3549C77.3264 21.3549 78.577 20.4511 78.8701 19.0588L76.9453 18.9318C76.7353 19.5034 76.1979 19.8014 75.5042 19.8014C74.4636 19.8014 73.8041 19.1126 73.8041 17.9939V17.989H78.9141V17.4174C78.9141 14.8673 77.3703 13.6069 75.3869 13.6069C73.1788 13.6069 71.7475 15.1751 71.7475 17.4907C71.7475 19.8698 73.1593 21.3549 75.47 21.3549ZM73.8041 16.6993C73.8481 15.8444 74.4978 15.1604 75.4211 15.1604C76.3249 15.1604 76.9502 15.8053 76.9551 16.6993H73.8041Z" fill="#222222"/>
<path d="M80.2722 21.2083H82.3533V16.7042C82.3533 15.8737 82.8809 15.3216 83.5746 15.3216C84.2585 15.3216 84.7177 15.7906 84.7177 16.5283V21.2083H86.7353V16.626C86.7353 15.8492 87.1798 15.3216 87.9371 15.3216C88.6014 15.3216 89.0997 15.7369 89.0997 16.5723V21.2083H91.176V16.1619C91.176 14.5351 90.2087 13.6069 88.8115 13.6069C87.7123 13.6069 86.8574 14.1687 86.5497 15.0285H86.4715C86.2321 14.159 85.4651 13.6069 84.4344 13.6069C83.4231 13.6069 82.6561 14.1443 82.3435 15.0285H82.2556V13.7046H80.2722V21.2083Z" fill="#222222"/>
<path d="M96.0428 21.2083H102.447V19.4643H98.1581V11.2034H96.0428V21.2083Z" fill="#222222"/>
<path d="M103.809 21.2083H105.89V13.7046H103.809V21.2083ZM104.855 12.7374C105.475 12.7374 105.983 12.2635 105.983 11.6822C105.983 11.1057 105.475 10.6318 104.855 10.6318C104.239 10.6318 103.731 11.1057 103.731 11.6822C103.731 12.2635 104.239 12.7374 104.855 12.7374Z" fill="#222222"/>
<path d="M114.553 13.7046H112.35L110.796 19.0735H110.718L109.16 13.7046H106.961L109.585 21.2083H111.93L114.553 13.7046Z" fill="#222222"/>
<path d="M118.782 21.3549C120.639 21.3549 121.889 20.4511 122.182 19.0588L120.258 18.9318C120.048 19.5034 119.51 19.8014 118.816 19.8014C117.776 19.8014 117.116 19.1126 117.116 17.9939V17.989H122.226V17.4174C122.226 14.8673 120.683 13.6069 118.699 13.6069C116.491 13.6069 115.06 15.1751 115.06 17.4907C115.06 19.8698 116.472 21.3549 118.782 21.3549ZM117.116 16.6993C117.16 15.8444 117.81 15.1604 118.733 15.1604C119.637 15.1604 120.263 15.8053 120.267 16.6993H117.116Z" fill="#222222"/>
<path d="M11.464 0L10.8634 0.573904L0 11.4259L1.20124 12.6259L2.2719 11.5563V21.2083H9.79269V12.8607H13.1353V21.2083H20.656V11.5563L21.7267 12.6259L22.9279 11.4259L12.0646 0.573904L11.464 0ZM11.464 2.37387L18.9848 9.88679V19.5388H14.8065V11.1911H8.1214V19.5388H3.94319V9.88679L11.464 2.37387Z" fill="#222222"/>
</svg>
