<?xml version="1.0" standalone="no"?>
<!DOCTYPE svg PUBLIC "-//W3C//DTD SVG 20010904//EN"
 "http://www.w3.org/TR/2001/REC-SVG-20010904/DTD/svg10.dtd">
<svg version="1.0" xmlns="http://www.w3.org/2000/svg"
 width="260.000000pt" height="260.000000pt" viewBox="0 0 260.000000 260.000000"
 preserveAspectRatio="xMidYMid meet">
<metadata>
Created by potrace 1.11, written by Peter Selinger 2001-2013
</metadata>
<g transform="translate(0.000000,260.000000) scale(0.100000,-0.100000)"
fill="#000000" stroke="none">
<path d="M1132 2590 c-549 -78 -984 -480 -1103 -1020 -31 -138 -33 -389 -5
-520 55 -253 163 -462 333 -641 188 -197 409 -322 673 -380 138 -31 389 -33
520 -5 253 55 462 163 641 333 197 188 322 409 380 673 31 138 33 389 5 520
-55 253 -163 462 -333 641 -184 193 -399 317 -653 375 -118 28 -348 40 -458
24z m813 -1349 l-35 -35 -28 27 c-15 15 -31 27 -35 27 -4 0 -7 -128 -7 -285
l0 -285 -220 0 -220 0 0 250 0 250 -105 0 -105 0 0 -250 0 -250 -220 0 -220 0
0 285 c0 157 -3 285 -7 285 -4 0 -20 -12 -35 -27 l-28 -27 -35 34 -35 34 342
343 343 343 342 -342 343 -343 -35 -34z"/>
<path d="M1067 1592 l-227 -228 0 -287 0 -287 130 0 130 0 0 250 0 250 195 0
195 0 0 -250 0 -250 130 0 130 0 0 287 0 287 -228 228 -227 228 -228 -228z"/>
</g>
</svg>
